<svg xmlns="http://www.w3.org/2000/svg" xmlns:xlink="http://www.w3.org/1999/xlink" viewBox="0 0 1487.2 892.32"><defs><style>.cls-1,.cls-2,.cls-3{fill:#221714;}.cls-1{clip-rule:evenodd;}.cls-3{fill-rule:evenodd;}.cls-4{clip-path:url(#clip-path);}.cls-5{clip-path:url(#clip-path-2);}.cls-6{fill:#fff;}</style><clipPath id="clip-path" transform="translate(487.8 564.39)"><path class="cls-1" d="M111.35,121.46H10.11A10.11,10.11,0,0,1,0,111.35V10.11A10.11,10.11,0,0,1,10.11,0H111.35a10.11,10.11,0,0,1,10.11,10.11V111.35a10.11,10.11,0,0,1-10.11,10.11"/></clipPath><clipPath id="clip-path-2" transform="translate(487.8 564.39)"><rect class="cls-2" x="-487.8" y="-564.39" width="1487.2" height="892.32"/></clipPath></defs><g id="레이어_2" data-name="레이어 2"><g id="레이어_1-2" data-name="레이어 1"><path d="M162.18,49.18H149.35l-1.73,5.43H139l11.74-34.54h10.06l11.75,34.54H163.9Zm-2.37-7.4L155.76,29.1l-4,12.68Z" transform="translate(487.8 564.39)"/><path d="M199,39.46V54.61h-7.41V40.54c0-3.06-1.92-4.49-4.29-4.49-2.71,0-4.59,1.58-4.59,5.09V54.61h-7.4V29.93h7.4v2.32c1.33-1.82,3.8-3,7.06-3C194.7,29.24,199,32.8,199,39.46Z" transform="translate(487.8 564.39)"/><path d="M213.41,37v8.73c0,2.12,1.82,2.32,5.08,2.12v6.72c-9.67,1-12.48-1.93-12.48-8.84V37h-3.95V29.93H206V25.25l7.4-2.22v6.9h5.08V37Z" transform="translate(487.8 564.39)"/><path d="M222.69,18.59h7.4v36h-7.4Z" transform="translate(487.8 564.39)"/><path d="M235.52,18.59h7.4v36h-7.4Z" transform="translate(487.8 564.39)"/><path d="M260.89,48.68a6.44,6.44,0,0,0,4.73-1.87l5.92,3.4c-2.41,3.36-6.07,5.09-10.75,5.09-8.44,0-13.67-5.68-13.67-13a12.65,12.65,0,0,1,13.12-13c7.21,0,12.54,5.58,12.54,13a14.15,14.15,0,0,1-.3,3H255C255.9,47.8,258.17,48.68,260.89,48.68Zm4.54-9a5.56,5.56,0,0,0-10.61,0Z" transform="translate(487.8 564.39)"/><path d="M291.78,29.44v8.39c-3.06-.49-7.4.74-7.4,5.62V54.61H277V29.93h7.4v4.4C285.37,31,288.67,29.44,291.78,29.44Z" transform="translate(487.8 564.39)"/><path d="M149.84,69.42V104H142V69.42Z" transform="translate(487.8 564.39)"/><path d="M179.2,88.81V104h-7.4V89.9c0-3.06-1.92-4.49-4.29-4.49-2.71,0-4.59,1.58-4.59,5.08V104h-7.4V79.29h7.4v2.32c1.33-1.83,3.8-3,7.06-3C175,78.6,179.2,82.15,179.2,88.81Z" transform="translate(487.8 564.39)"/><path d="M183.06,91.62a13.05,13.05,0,0,1,24.23-6.71l-6.47,3.75A5.11,5.11,0,0,0,196,85.9a5.73,5.73,0,0,0,0,11.45,5.05,5.05,0,0,0,4.78-2.77l6.47,3.7a12.61,12.61,0,0,1-11.15,6.37A12.78,12.78,0,0,1,183.06,91.62Z" transform="translate(487.8 564.39)"/><path d="M208.53,100a4.69,4.69,0,1,1,4.68,4.69A4.71,4.71,0,0,1,208.53,100Z" transform="translate(487.8 564.39)"/><path class="cls-3" d="M111.35,121.46H10.11A10.11,10.11,0,0,1,0,111.35V10.11A10.11,10.11,0,0,1,10.11,0H111.35a10.11,10.11,0,0,1,10.11,10.11V111.35a10.11,10.11,0,0,1-10.11,10.11" transform="translate(487.8 564.39)"/><g class="cls-4"><rect class="cls-2" width="1487.2" height="892.32"/><g class="cls-5"><rect x="484.08" y="560.67" width="128.9" height="128.9"/></g></g><path class="cls-6" d="M41.2,81.81c-2.21,6.53-4.9,13.56-6.41,16H47.57a87.5,87.5,0,0,0,4.34-10.94,34.22,34.22,0,0,0,8,1.19v0h1.66v0a34.22,34.22,0,0,0,8-1.19,87.5,87.5,0,0,0,4.34,10.94H86.67c-1.51-2.4-4.2-9.43-6.41-16A52.73,52.73,0,0,0,91.4,72.7h0c9.43-10,15.28-22.5,15.28-32.65a21.53,21.53,0,0,0-.79-5.93,13.57,13.57,0,0,0-9.79-9.9C91,22.91,85.91,24,81.29,27.43,72.61,33.86,67,47.56,66.3,64.09a58.7,58.7,0,0,0,.57,11.79A18.7,18.7,0,0,1,60.74,77a19.24,19.24,0,0,1-6.15-1.08,58.83,58.83,0,0,0,.57-11.8c-.7-16.53-6.31-30.23-15-36.66-4.63-3.41-9.75-4.52-14.81-3.21a13.57,13.57,0,0,0-9.79,9.9,21.53,21.53,0,0,0-.79,5.93c0,10.15,5.85,22.66,15.28,32.65A53.23,53.23,0,0,0,41.2,81.81ZM77.47,64.57C78.14,49,83.54,39.7,88,36.42a6.79,6.79,0,0,1,4-1.54,5.61,5.61,0,0,1,1.31.17c.64.18,1.36.5,1.83,2.17C96.78,43,92.8,54.91,83.27,65a43.72,43.72,0,0,1-5.77,5.17A52.2,52.2,0,0,1,77.47,64.57ZM26.33,37.21c.47-1.66,1.19-2,1.83-2.15a5.15,5.15,0,0,1,1.31-.18,6.74,6.74,0,0,1,4,1.54C37.92,39.69,43.32,49,44,64.57a52.2,52.2,0,0,1,0,5.61A44.36,44.36,0,0,1,38.19,65C28.66,54.91,24.68,43,26.33,37.21Z" transform="translate(487.8 564.39)"/></g></g></svg>