<svg version="1.2" xmlns="http://www.w3.org/2000/svg" viewBox="0 0 647 96" width="647" height="96">
	<title>ch-black-svg</title>
	<style>
		.s0 { fill: #ffffff } 
		.s1 {fill:#ffffff}
		.s2 { fill: #000000 } 
	</style>
	<g id="Layer 1">
		<g id="&lt;Group&gt;">
			<path id="&lt;Path&gt;" class="s0" d="m814 1269h-1190.6v-1683.8h1190.6z"/>
			<g id="&lt;Group&gt;">
			</g>
			<g id="&lt;Group&gt;">
				<path id="&lt;Path&gt;" class="s2" d="m194.6 49.4q-5.4 3.6-10.6 4l-5.4-4.4q6.8-1.1 12-6.9 5.1-5.8 5.1-14.6v-5c0-0.8-0.2-1.6-0.6-2.5q-0.7-1.4-1.9-2h8.7q4.7 0 4.9 3.9l0.1 5.6q-0.1 8.9 5.1 14.6 5.2 5.7 12 6.9l-5.4 4.4q-5.2-0.3-10.6-4-5.3-3.6-6.7-7.7-1.3 4.1-6.7 7.7z"/>
				<g id="&lt;Group&gt;">
					<path id="&lt;Path&gt;" class="s2" d="m137.5 28.5h-17.7v-5.8h19v-1.2q0-1.2-0.7-2.6-0.6-1.4-1.8-2h8.7q5 0 4.9 4.3v1.5h19.2v5.8h-17.7q2.7 4.9 9.4 8.3 6.6 3.3 13.3 3.3l-5.2 4.6q-6.7 0-14.4-3-7.7-3-10.1-7.5-2.3 4.6-9.9 7.5-7.7 3-14.6 3l-5.2-4.6q6.8 0 13.4-3.3 6.7-3.3 9.4-8.3z"/>
					<path id="&lt;Path&gt;" class="s2" d="m113.7 48.7h61.5v6h-25.2v5.7h17.9v20.2h-11.1v-14.3h-36.3v-5.9h18.4v-5.7h-25.2z"/>
				</g>
				<path id="&lt;Compound Path&gt;" fill-rule="evenodd" class="s2" d="m374.6 42.1h-50.6v-5.9h8.8v-12.6h-8v-5.9h49.1v5.9h-8v12.6h8.7zm-19.7-18.5h-11.1v12.6h11.1z"/>
				<path id="&lt;Compound Path&gt;" fill-rule="evenodd" class="s2" d="m590.2 30.2q0-5.6 4.9-9.4 4.9-3.9 11.8-3.9 7 0 11.8 3.9 4.8 3.8 4.8 9.4 0 5.5-4.8 9.3-4.8 3.9-11.8 3.9-6.9 0-11.8-3.9-4.9-3.8-4.9-9.3zm10.7 0q0 3.2 1.7 5.4 1.8 2.2 4.3 2.2 2.5 0 4.2-2.2 1.8-2.2 1.8-5.4 0-3.3-1.8-5.5-1.7-2.2-4.2-2.2-2.5 0-4.3 2.2-1.7 2.2-1.7 5.5z"/>
				<path id="&lt;Path&gt;" class="s2" d="m630 16.9h8.8q4.9 0 4.9 4.3v2.5 39.9h-11.1v-4.2h-14.8v-5.2h14.8v-32.7c0-0.8-0.3-1.7-0.7-2.6q-0.7-1.4-1.9-2z"/>
				<path id="&lt;Path&gt;" class="s2" d="m431.2 16.9h8.7q4.9 0 4.9 4.3v2.5 25h-11v-25-2.2c0-0.8-0.3-1.7-0.8-2.6q-0.7-1.4-1.8-2z"/>
				<path id="&lt;Path&gt;" class="s2" d="m513.3 21.2v2.5 25.8h-10.6v-8h-8.4v-5.7h8.4v-4.5h-8.4v-5.8h8.4v-0.9-3.1c0-0.8-0.3-1.7-0.7-2.6q-0.7-1.4-1.9-2h8.3q4.9 0 4.9 4.3z"/>
				<path id="&lt;Path&gt;" class="s2" d="m602.5 50.6h-16.3v-5.6h43.1v5.6h-15.7v9.5h-11.1z"/>
				<path id="&lt;Path&gt;" class="s2" d="m575.2 31.1h8.9v5.9h-8.9v43.4h-11.1v-58.9c0-0.8-0.3-1.7-0.7-2.6q-0.7-1.4-1.9-2h8.8q4.9 0 4.9 4.3v2.5z"/>
				<path id="&lt;Path&gt;" class="s2" d="m237.4 31.1h8.9v5.9h-8.9v26.8h-10.3v-42.3c0-0.8-0.3-1.7-0.8-2.6q-0.7-1.4-1.8-2h8q5 0 5 4.3l-0.1 9.5z"/>
				<path id="&lt;Path&gt;" class="s2" d="m446.1 74.8v5.9h-39.4q-3.6 0-5.7-2-2.1-1.9-2.1-5v-5.5q0-1.1-0.7-2.4-0.7-1.4-1.8-2h37.4v-5.3h-36.8v-5.9h47.8v16.7h-34.9v5.5z"/>
				<g id="&lt;Group&gt;">
					<path id="&lt;Compound Path&gt;" fill-rule="evenodd" class="s2" d="m255 16.8h50v21.6h-39.8q-3.5 0-5.6-2-2.1-1.9-2.1-5v-10.1q0-1.2-0.7-2.5-0.6-1.4-1.8-2zm13.6 15.6h25.3v-9.7h-25.3z"/>
					<path id="&lt;Path&gt;" class="s2" d="m286.6 49v5.3h18v15.9h-34.4v4.7h35.8v5.8h-38.4q-3.5 0-5.6-2-2.1-1.9-2.1-5v-4.6q-0.1-1.2-0.7-2.5-0.7-1.4-1.8-2h36.2v-4.4h-35.3v-5.9h17.2v-5.3h-25.7v-6h62.5v6z"/>
				</g>
				<path id="&lt;Path&gt;" class="s2" d="m239.8 74.7v6h-38.9q-3.3 0-5.5-1.9-2.2-1.8-2.2-5.1v-10q0-1.2-0.7-2.5-0.6-1.4-1.8-2h13.6v15.5z"/>
				<path id="&lt;Path&gt;" class="s2" d="m643.7 74.6v6h-39.9q-3.3 0-5.5-1.8-2.2-1.9-2.2-5.2v-6.1q0-1.1-0.7-2.5-0.7-1.4-1.8-2h13.5v11.6z"/>
				<path id="&lt;Compound Path&gt;" fill-rule="evenodd" class="s2" d="m354.9 52.3v6h18v22.4h-37.3q-3.5 0-5.6-2-2.1-1.9-2.1-5v-10.9q0-1.1-0.7-2.5-0.7-1.4-1.8-2h18.4v-6h-25.7v-5.9h62.5v5.9zm-15.9 12v10.5h22.9v-10.5z"/>
				<path id="&lt;Path&gt;" class="s2" d="m431.3 43.3l-5.2 4.5q-5-0.4-10.2-4-5.2-3.6-6.6-7.8-1.2 4.2-6.5 7.7-5.2 3.6-10.2 4.1l-5.2-4.5q6.3-1 11.2-6.5c3.3-3.6 5-7.6 5.3-13.2h-12.1v-5.8h32.3c2.4 0.4 2.9 2.9 2.9 4.2v1.6h-12.3c0.3 5.6 2.1 9.7 5.4 13.3q4.9 5.4 11.2 6.4z"/>
				<path id="&lt;Compound Path&gt;" fill-rule="evenodd" class="s2" d="m497.7 43.6v5.8h-41.3v-5.8h6.5v-20h-6.1v-5.8h38.1c2.1 0.4 2.9 3.1 2.9 4.5v1.3h-6.9v20zm-17.7-20h-6.2v20h6.2z"/>
				<path id="&lt;Path&gt;" class="s2" d="m557.3 21.4v2.5q0 16.5-10.1 25.2-10.1 8.6-21.3 9.2l-6.1-4.2q11.1-1.6 18.5-8.5 7.4-6.9 7.4-20.9v-1.3h-22v-5.9h31.3c1.6 0.1 2.3 2.3 2.3 3.9z"/>
				<path id="&lt;Compound Path&gt;" fill-rule="evenodd" class="s2" d="m513 68.2q0 6.2-5.9 10.6-5.9 4.4-14.3 4.4-8.3 0-14.2-4.4-5.9-4.4-5.9-10.6 0-6.3 5.9-10.8 5.9-4.4 14.2-4.4 8.4 0 14.3 4.4 5.9 4.5 5.9 10.8zm-11.4 0q0-3.6-2.6-6.4-2.6-2.8-6.2-2.8-3.5 0-6.1 2.8-2.6 2.8-2.6 6.4 0 3.5 2.6 6.2 2.6 2.8 6.1 2.8 3.6 0 6.2-2.8 2.6-2.7 2.6-6.2z"/>
			</g>
			<g id="&lt;Group&gt;">
				<path id="&lt;Path&gt;" class="s2" d="m96.1 48c0 26-21.2 47.1-47.2 47.1-13.1 0-25.3-5.2-34.3-14.8l-1.7-1.8 3 1c8.6 2.5 14.1-1.5 15-2.2l0.6-0.4 0.5 0.3c5.3 3.2 10.7 4.5 16.9 4.5 18.6 0 33.7-15.1 33.7-33.7 0-18.7-15.1-33.8-33.7-33.8-18.7 0-33.8 15.1-33.8 33.8 0 6.2 1.7 12.2 4.9 17.5-6.3 8-12.4 3.9-14.2 1.7-2.7-6.1-4.1-12.6-4.1-19.2 0-26.1 21.1-47.2 47.2-47.2 26 0 47.2 21.1 47.2 47.2z"/>
				<path id="&lt;Path&gt;" class="s2" d="m49.9 95.1v-13.4c17.8-0.5 32.1-14.8 32.7-32.6h13.4c-0.6 25.2-20.9 45.5-46.1 46z"/>
				<path id="&lt;Path&gt;" class="s2" d="m48.8 34.4c-2.5 2.1-5.5 6.5-8.6 15.2-4.3 11.9-6.1 16.7-9 20.5-2.7 3.3-8.2 6.1-16 4.2-5-1.2-7.5-4-8.7-5.7q-0.5-0.8-0.7-1.4c1.8 2.2 7.9 6.3 14.2-1.7q1.3-1.6 2.6-4c4.6-8.6 6.8-21.1 13.7-29.1 1.3-1.6 2.8-2.5 4.4-3 3.4 0.3 6 2.2 8.1 5z"/>
				<path id="&lt;Path&gt;" class="s2" d="m93.5 77.3q-1.7 0.1-2.7 0-1.5 0-3.1-0.1-21.1-1.1-29.3-22.1-2.6-6.8-4.5-11.2c-1.6-3.6-3.1-6.9-5.1-9.5-2.1-2.8-4.7-4.7-8.1-5q4.1-1.4 11-1.1 6.9 0 11.7 7.4c4.5 6.9 5.4 11 8.6 17.8 4.4 9.3 15.6 18.4 22.6 22.4q2.1 1.3-1.1 1.4z"/>
				<path id="&lt;Path&gt;" class="s2" d="m5.8 67.2c-2.7-6.1-4.1-12.6-4.1-19.2 0-8 2-15.5 5.5-22.1h16.1c-5.1 5.9-8.2 13.6-8.2 22.1 0 6.2 1.7 12.2 4.9 17.5-6.3 8-12.4 3.9-14.2 1.7z"/>
			</g>
		</g>
	</g>
</svg>