<?xml version="1.0" standalone="no"?>
<!DOCTYPE svg PUBLIC "-//W3C//DTD SVG 20010904//EN"
 "http://www.w3.org/TR/2001/REC-SVG-20010904/DTD/svg10.dtd">
<svg version="1.0" xmlns="http://www.w3.org/2000/svg" style="fill:#fff;"
 width="4138.000000pt" height="750.000000pt" viewBox="0 0 4138.000000 750.000000"
 preserveAspectRatio="xMidYMid meet">

<g transform="translate(0.000000,750.000000) scale(0.100000,-0.100000)"
fill="#ffff" stroke="none">
<path d="M845 7486 c-468 -77 -830 -481 -838 -934 l-2 -103 37 -35 38 -34
1225 0 c1346 0 1267 -4 1300 60 34 66 9 238 -55 375 -95 204 -274 354 -490
411 -71 18 -221 24 -315 11 l-60 -8 -70 56 c-93 75 -246 149 -370 181 -123 31
-286 39 -400 20z m380 -271 c127 -42 217 -98 323 -202 54 -53 95 -62 169 -39
183 58 378 11 512 -123 53 -53 107 -143 126 -208 l6 -23 -1050 0 c-892 0
-1051 2 -1051 14 0 25 42 150 67 201 85 167 229 297 404 365 106 41 164 50
299 45 91 -2 132 -8 195 -30z"/>
<path d="M6313 7481 c-67 -42 -63 26 -63 -1096 l0 -1015 -470 0 c-263 0 -470
4 -470 9 0 5 7 14 15 21 29 24 103 155 129 227 56 159 57 329 1 492 -76 225
-263 404 -500 477 -86 27 -325 27 -410 0 -207 -63 -372 -202 -465 -391 -59
-118 -75 -189 -74 -330 0 -193 55 -343 179 -488 56 -66 65 -81 54 -92 -8 -7
-248 -221 -534 -475 l-520 -462 -352 -176 -352 -176 -175 28 c-97 16 -176 31
-176 33 0 3 24 31 52 63 70 77 114 151 152 257 30 84 31 95 31 238 -1 136 -3
158 -28 230 -39 117 -91 199 -187 295 -148 149 -286 209 -496 218 -146 5 -243
-15 -374 -80 -70 -34 -102 -58 -181 -137 -79 -79 -103 -111 -137 -181 -65
-131 -85 -228 -80 -374 4 -102 9 -135 35 -209 39 -110 81 -181 159 -266 l62
-66 -203 -527 c-112 -290 -209 -551 -216 -580 -21 -87 -15 -220 15 -313 25
-79 80 -182 115 -219 18 -18 14 -26 -146 -295 l-166 -276 -263 -265 c-222
-224 -263 -271 -269 -302 -4 -20 -4 -47 0 -60 4 -12 102 -119 219 -236 222
-224 244 -239 309 -221 23 6 122 99 372 351 l341 343 229 348 230 348 80 -6
c44 -3 83 -9 88 -14 4 -4 6 -120 5 -257 l-3 -249 -93 -5 c-91 -5 -95 -6 -123
-38 l-29 -32 0 -474 c0 -443 -1 -475 -17 -480 -10 -2 -353 -82 -763 -175 -410
-94 -760 -178 -778 -186 -52 -24 -72 -67 -72 -157 l0 -78 125 0 c100 0 125 3
125 14 0 8 10 16 23 19 12 3 357 83 767 178 410 94 757 178 772 185 53 27 53
25 58 519 l5 460 962 5 c943 5 962 5 987 25 14 11 269 291 567 623 l541 602
1284 0 1284 0 0 120 0 120 -812 2 -813 3 -5 505 -5 505 -26 55 c-52 110 -135
180 -251 209 -40 10 -153 31 -252 47 -98 16 -180 33 -182 39 -2 5 13 96 34
200 l37 190 513 3 512 2 0 -375 0 -375 125 0 125 0 0 1210 0 1210 480 240
c361 180 484 246 497 267 23 35 23 101 0 136 -13 21 -145 91 -537 287 -286
143 -536 262 -557 265 -28 4 -46 1 -70 -14z m487 -456 c160 -80 290 -147 290
-150 0 -5 -575 -295 -585 -295 -3 0 -5 133 -5 295 0 162 2 295 5 295 3 0 136
-65 295 -145z m-1893 -676 c286 -92 426 -428 289 -697 -135 -266 -471 -356
-722 -194 -262 170 -301 542 -80 767 136 138 325 183 513 124z m-3152 -1241
c141 -36 280 -159 334 -297 72 -182 33 -381 -104 -529 -192 -207 -527 -207
-723 2 -68 73 -107 148 -128 244 -17 84 -17 110 1 197 20 95 56 165 122 235
131 142 311 196 498 148z m4495 -108 l0 -130 -580 0 c-640 0 -621 2 -653 -62
-19 -37 -137 -623 -137 -680 0 -47 17 -83 48 -104 14 -9 141 -35 321 -65 163
-28 306 -57 318 -65 13 -8 31 -26 40 -41 17 -25 18 -65 18 -503 l0 -475 -187
-3 -188 -2 0 327 c0 307 -1 330 -20 360 -37 61 -39 61 -446 98 -209 19 -399
39 -423 45 -105 26 -194 98 -243 198 -31 62 -33 73 -33 167 l1 100 180 465
c99 256 183 473 187 483 6 16 58 17 902 17 l895 0 0 -130z m-2273 -438 l-93
-242 -174 -130 c-95 -71 -176 -130 -179 -130 -3 0 -30 37 -60 82 -37 56 -51
86 -45 95 11 17 637 573 641 569 1 -1 -39 -111 -90 -244z m-713 -558 c32 -47
56 -87 54 -89 -2 -1 -166 -95 -364 -209 l-361 -206 -308 0 c-337 0 -361 -4
-390 -60 -17 -32 -145 -539 -145 -572 0 -30 33 -84 60 -98 12 -7 151 -33 309
-60 157 -26 298 -54 314 -61 15 -7 36 -27 47 -44 19 -31 20 -52 20 -509 l0
-476 -187 2 -188 3 -3 334 c-2 318 -3 335 -23 362 -11 16 -29 34 -40 40 -11 5
-189 26 -397 44 -207 19 -397 40 -422 46 -69 16 -137 58 -190 116 -66 72 -93
145 -94 248 l0 80 183 475 c101 261 187 483 192 493 9 15 29 17 200 17 187 0
195 -1 580 -65 214 -36 400 -63 412 -59 12 3 168 79 347 169 179 90 328 164
331 165 3 0 32 -39 63 -86z m585 -87 c15 -67 61 -166 107 -228 l34 -47 -166
-279 -167 -278 -258 -260 c-265 -267 -283 -289 -271 -351 8 -44 413 -451 462
-464 73 -20 84 -11 423 328 l319 317 249 373 c210 313 253 372 273 372 13 0
51 -3 85 -6 l61 -7 0 -258 0 -259 -82 0 c-62 0 -90 -5 -110 -18 -14 -9 -272
-290 -572 -624 l-546 -608 -470 0 -469 0 -3 503 -3 502 -32 67 c-17 37 -51 87
-75 111 -74 74 -126 92 -378 133 -124 21 -227 39 -229 40 -2 2 12 64 30 138
l33 135 286 3 285 3 445 254 c346 198 475 278 580 357 74 57 138 103 141 103
3 1 11 -23 18 -52z m586 -477 c61 -7 111 -13 112 -14 1 -1 -89 -139 -201 -307
l-204 -304 -259 -258 -258 -257 -100 100 -100 100 216 217 215 218 167 281
167 280 68 -22 c37 -13 117 -28 177 -34z m-3275 -1224 c30 -9 100 -20 155 -27
55 -6 101 -12 103 -14 2 -2 -84 -135 -191 -296 l-194 -294 -267 -265 -266
-265 -100 100 -100 100 219 220 219 220 163 273 c141 237 166 273 183 269 12
-3 46 -12 76 -21z"/>
<path d="M1880 6000 l0 -120 120 0 120 0 0 120 0 120 -120 0 -120 0 0 -120z"/>
<path d="M2380 6000 l0 -120 120 0 120 0 0 120 0 120 -120 0 -120 0 0 -120z"/>
<path d="M2880 6000 l0 -120 120 0 120 0 0 120 0 120 -120 0 -120 0 0 -120z"/>
<path d="M33828 5668 l-3 -283 -587 -3 -588 -2 0 -175 0 -175 1345 0 1345 0 0
175 0 175 -555 0 -555 0 0 285 0 285 -200 0 -200 0 -2 -282z"/>
<path d="M9690 5620 l0 -320 -510 0 -510 0 0 -175 0 -175 510 0 510 0 0 -522
c-1 -471 -2 -528 -18 -573 -48 -136 -542 -866 -919 -1357 -78 -103 -143 -191
-143 -196 0 -9 284 -262 294 -262 12 0 428 547 577 760 153 218 409 617 409
638 0 7 5 12 10 12 6 0 10 -5 10 -11 0 -39 360 -579 589 -884 152 -203 371
-475 382 -475 5 0 74 57 153 127 l144 128 -44 55 c-124 153 -377 487 -494 651
-232 322 -506 742 -531 815 -11 31 -14 142 -14 564 l0 525 498 3 497 2 0 175
0 175 -500 0 -500 0 0 320 0 320 -200 0 -200 0 0 -320z"/>
<path d="M11820 3770 l0 -2140 205 0 205 0 0 1030 0 1030 360 0 360 0 0 175 0
175 -360 0 -360 0 0 935 0 935 -205 0 -205 0 0 -2140z"/>
<path d="M16370 3770 l0 -2140 205 0 205 0 0 1130 0 1130 355 0 355 0 0 175 0
175 -355 0 -355 0 0 835 0 835 -205 0 -205 0 0 -2140z"/>
<path d="M31400 4695 l0 -1215 200 0 200 0 0 1215 0 1215 -200 0 -200 0 0
-1215z"/>
<path d="M35950 3770 l0 -2140 200 0 200 0 0 2140 0 2140 -200 0 -200 0 0
-2140z"/>
<path d="M40240 3770 l0 -2140 205 0 205 0 2 1123 3 1122 358 3 357 2 0 175 0
175 -360 0 -360 0 0 840 0 840 -205 0 -205 0 0 -2140z"/>
<path d="M29170 5408 c0 -254 -4 -438 -10 -459 -20 -73 -487 -567 -888 -942
l-194 -180 119 -119 c65 -65 123 -117 130 -116 32 8 599 555 887 857 l166 175
16 -25 c40 -60 441 -444 844 -808 l204 -184 108 114 c60 63 113 121 118 130 8
13 -21 44 -148 160 -470 431 -902 849 -928 899 -18 32 -19 68 -22 478 l-3 442
-199 0 -200 0 0 -422z"/>
<path d="M23850 5635 l0 -175 723 -2 722 -3 3 -213 c3 -233 -3 -274 -46 -317
-104 -105 -868 -566 -1384 -835 l-127 -66 90 -159 c49 -87 91 -161 94 -163 8
-8 533 282 810 446 330 197 770 482 777 504 3 9 15 3 34 -18 46 -47 526 -336
1058 -634 422 -236 509 -281 519 -271 5 5 49 78 97 162 l89 153 -112 59 c-651
344 -1380 762 -1442 827 l-30 31 -3 250 -3 249 736 0 735 0 0 175 0 175 -1670
0 -1670 0 0 -175z"/>
<path d="M38188 4863 c-3 -944 -3 -948 -24 -1000 -62 -151 -598 -891 -1001
-1383 -79 -96 -143 -177 -143 -180 1 -3 70 -55 155 -117 l154 -112 94 112
c213 256 454 565 617 792 169 235 350 508 351 529 0 21 0 21 8 1 22 -53 328
-481 543 -758 153 -196 506 -630 517 -635 4 -1 75 49 158 111 l152 113 -72 85
c-383 449 -1017 1307 -1071 1449 -21 54 -21 69 -24 998 l-3 942 -204 0 -205 0
-2 -947z"/>
<path d="M18290 5788 c-46 -13 -78 -44 -91 -87 -7 -24 -9 -283 -7 -776 l3
-740 22 -55 c13 -30 40 -77 60 -104 52 -68 319 -305 383 -340 118 -64 23 -60
1503 -63 l1347 -3 0 180 0 180 -1297 2 c-999 3 -1306 6 -1334 16 -50 17 -253
202 -268 243 -6 17 -11 92 -11 165 l0 134 1385 0 1385 0 0 170 0 170 -1385 0
-1385 0 0 285 0 285 1435 0 1435 0 0 175 0 175 -1572 -1 c-1007 0 -1586 -4
-1608 -11z"/>
<path d="M13380 5605 l0 -175 855 0 855 0 0 -635 0 -635 -26 -10 c-16 -6 -323
-10 -805 -10 -756 0 -781 -1 -818 -20 -74 -37 -72 -16 -69 -785 3 -677 3 -680
26 -748 13 -39 43 -93 70 -130 77 -101 256 -309 302 -351 56 -50 130 -83 215
-96 43 -6 396 -10 898 -10 l827 0 0 175 0 174 -792 3 c-940 4 -832 -14 -987
158 -157 175 -146 119 -146 760 l0 535 750 5 c691 5 753 6 789 23 64 29 105
65 134 120 l27 52 3 838 c3 941 7 882 -71 918 -40 18 -81 19 -1039 19 l-998 0
0 -175z"/>
<path d="M33702 4679 c-372 -48 -626 -255 -708 -575 -44 -174 -30 -415 32
-568 73 -180 231 -331 423 -405 94 -36 258 -71 335 -71 l56 0 0 -290 0 -290
-595 0 -595 0 0 -175 0 -175 1435 0 1435 0 0 175 0 175 -635 0 -635 0 0 289 0
288 83 6 c125 10 240 42 357 99 193 95 324 258 382 473 27 105 29 320 3 440
-74 342 -327 556 -719 605 -94 12 -562 11 -654 -1z m645 -362 c199 -57 318
-192 343 -389 31 -246 -111 -446 -360 -509 -87 -22 -525 -20 -607 3 -231 64
-363 227 -363 448 0 247 165 423 430 461 94 13 498 3 557 -14z"/>
<path d="M23590 3145 l0 -175 863 -2 862 -3 3 -702 2 -703 200 0 200 0 0 705
0 705 865 0 865 0 0 175 0 175 -1930 0 -1930 0 0 -175z"/>
<path d="M17910 2980 l0 -180 865 0 865 0 0 -620 0 -620 200 0 200 0 0 620 0
620 870 0 870 0 0 180 0 180 -1935 0 -1935 0 0 -180z"/>
<path d="M28560 2985 l0 -175 1420 0 1420 0 0 -630 0 -630 200 0 200 0 -2 764
c-3 758 -3 765 -24 793 -11 15 -36 33 -55 40 -26 9 -413 12 -1596 12 l-1563 1
0 -175z"/>
</g>
</svg>
