<svg xmlns="http://www.w3.org/2000/svg" version="1.2" viewBox="0 0 602 82" width="602" height="82" style="fill:#ffff">
	<title>한우자조금CI-svg</title>
	<defs>
		<clipPath clipPathUnits="userSpaceOnUse" id="cp1">
			<path d="m-285-315h1122.52v793.71h-1122.52z"/>
		</clipPath>
	</defs>
	<style>

	</style>
	<g id="g10">
		<g id="g12">
			<g id="Clip-Path: g14" clip-path="url(#cp1)">
				<g id="g14">
					<g id="g20">
						<path id="path22" fill-rule="evenodd" class="s0" d="m72.1 43.2c0 15-12.2 27.1-27.2 27.1-14.9 0-27.1-12.1-27.1-27.1h4.9c0.1 12.3 10 22.2 22.2 22.2 12.3 0 22.2-9.9 22.2-22.2z"/>
					</g>
					<g id="g24">
						<circle id="path26" class="s1" cx="64.3" cy="23.8" r="5.2"/>
					</g>
					<g id="g28">
						<path id="path30" fill-rule="evenodd" class="s2" d="m47.7 10.5v16.9c7.7 1.3 13.7 8.1 13.7 16.2 0 8.1-6 14.9-13.8 16.2v-4.8c5.2-1.2 9-5.9 9-11.4 0-6.4-5.2-11.7-11.7-11.7-6.4 0-11.6 5.3-11.6 11.7 0 5.5 3.8 10.2 8.9 11.4v4.8c-7.7-1.3-13.7-8.1-13.7-16.2 0-8.1 6-14.9 13.7-16.2v-11.3c-13.7 1.3-24.6 13-24.6 27.1q0 0.1 0 0.1h-5.4v-0.1c0-17.1 13.2-31.2 30-32.6 1.9-0.1 3.7-0.1 5.5-0.1z"/>
					</g>
					<g id="g32">
						<path id="path34" fill-rule="evenodd" class="s3" d="m511.3 60.5h19.3v5.6h-21.2-0.5l-0.5-0.1-0.4-0.1-0.5-0.1-0.4-0.2-0.4-0.2-0.4-0.3-0.4-0.3-0.3-0.4-0.3-0.4-0.2-0.4-0.2-0.4-0.1-0.4-0.1-0.5-0.1-0.5v-0.5-7.1h6.7z"/>
					</g>
					<g id="g36">
						<path id="path38" fill-rule="evenodd" class="s3" d="m477.7 54.9h-28.7c1.4 0.9 1.8 2 2 3.3v7.9h-6.7v-8.1c0.1-1.8-0.7-2.8-2-3.1h-4.6v-5.7h40z"/>
					</g>
					<path id="path40" fill-rule="evenodd" class="s3" d="m473.6 23.4h6.7v42.6h-6.7z"/>
					<g id="g42">
						<path id="path44" fill-rule="evenodd" class="s3" d="m413 42.1h-20.3v7h22.2 8.1v-25.6h6.7v42.6h-6.7v-11.4h-6.1-25.6-0.6l-0.5-0.1-0.5-0.1-0.5-0.1-0.5-0.2-0.4-0.3-0.4-0.3-0.4-0.3-0.3-0.4-0.4-0.4-0.2-0.4-0.2-0.5-0.2-0.5-0.1-0.5-0.1-0.5v-0.5-13.2h20.3v-7.3h-15.7v-5.6h22.4z"/>
					</g>
					<g id="g46">
						<path id="path48" fill-rule="evenodd" class="s3" d="m351.1 60.5h27.2v5.6h-29.1-0.5l-0.5-0.1-0.5-0.1-0.4-0.1-0.4-0.2-0.4-0.2-0.4-0.3-0.4-0.3-0.3-0.4-0.3-0.4-0.2-0.4-0.2-0.4-0.1-0.4-0.1-0.5-0.1-0.5v-0.5-15.2h6.7z"/>
					</g>
					<g id="g50">
						<path id="path52" fill-rule="evenodd" class="s3" d="m371.5 28.3l0.1-0.5v-0.5l0.1-0.5 0.2-0.4 0.2-0.5 0.2-0.4 0.3-0.3 0.3-0.4 0.3-0.3 0.4-0.3 0.4-0.2 0.4-0.2 0.5-0.2 0.5-0.1h0.5 0.5 7.8v5.6h-5.9v25.5h-6.8v-6.3h-35.3v-13.2h6.7l0.1 7.6h28.5z"/>
					</g>
					<g id="g54">
						<path id="path56" fill-rule="evenodd" class="s3" d="m328.2 52v14.1h-38.5-0.5l-0.5-0.1-0.5-0.1-0.5-0.2-0.4-0.2-0.5-0.3-0.4-0.3-0.4-0.3-0.3-0.4-0.3-0.4-0.3-0.5-0.2-0.4-0.2-0.5-0.1-0.5-0.1-0.5v-0.5-13.8h38.3c2.8-0.1 5.3 1.8 5.4 4.9zm-37 8.5h30.3v-7.8h-30.3z"/>
					</g>
					<g id="g58">
						<path id="path60" fill-rule="evenodd" class="s3" d="m278.6 59.3h-43.7v-5.6h12.3c1.6-0.2 3.5-1.9 3.4-4.2v-5h6.7v4.7c-0.1 2.7-2 4.1-3.4 4.5h24.7z"/>
					</g>
					<g id="g62">
						<path id="path64" fill-rule="evenodd" class="s3" d="m248.7 29.1h-13.8v-5.6h43.7v5.6h-20.9c1 6.2 6.2 8.1 10.5 8.1l10.4-0.1v5.7l-9.4 0.1c-6.6-0.2-12.2-0.8-15.7-7.3-2 6.5-6.5 10.4-15.2 11.2q-1.7-0.1-3.4-0.1v-5.7l1.1 0.1q1.4 0 2.8 0c6.3-0.6 9.8-6.2 9.9-12z"/>
					</g>
					<g id="g66">
						<path id="path68" fill-rule="evenodd" class="s3" d="m174.1 54.2h-23.4c2 0.3 3 2.5 3 4.2v7.7h-6.7v-8.5c0-1.7-1-3.1-3-3.4h-13.6v-5.7h43.7z"/>
					</g>
					<g id="g70">
						<path id="path72" fill-rule="evenodd" class="s3" d="m98.4 60.5h25.5v5.6h-27.4-0.5l-0.5-0.1-0.4-0.1-0.5-0.1-0.4-0.2-0.4-0.2-0.4-0.3-0.4-0.3-0.3-0.4-0.2-0.4-0.3-0.4-0.2-0.4-0.1-0.4-0.1-0.5-0.1-0.5v-0.5-12.2h6.7z"/>
					</g>
					<g id="g74">
						<path id="path76" fill-rule="evenodd" class="s3" d="m117.2 27.8l0.1-0.5 0.1-0.5 0.2-0.4 0.1-0.5 0.3-0.4 0.3-0.3 0.3-0.4 0.3-0.3 0.4-0.3 0.4-0.2 0.4-0.2 0.5-0.2 0.5-0.1h0.5 0.5 7.8v5.6h-6v23.5h-6.7v-24.3z"/>
					</g>
					<g id="g78">
						<path id="path80" fill-rule="evenodd" class="s3" d="m81.1 17.4h6.7v6.6h12.3v5.7c-4.1 0-10.1-0.1-14.8-0.1-2.6 0-4.3-1.6-4.2-3.6q0-4.3 0-8.6z"/>
					</g>
					<g id="g82">
						<path id="path84" fill-rule="evenodd" class="s3" d="m321.5 29.1h-31.6v-5.6h33.5 0.5 0.5l0.4 0.1 0.5 0.2 0.4 0.2 0.4 0.2 0.4 0.3 0.3 0.3 0.4 0.4 0.2 0.3 0.3 0.4 0.2 0.5 0.1 0.4 0.1 0.5 0.1 0.5v0.5 15.1h-43.7v-5.7h37z"/>
					</g>
					<g id="g86">
						<path id="path88" fill-rule="evenodd" class="s3" d="m221.8 23.5h0.5 7.8v5.6h-5.9v37h-6.7v-11.4c-3.2 0-9.6 0-12.7-0.6-4.1-0.8-6.8-1.8-10.4-5.8-1.8 4.4-4.8 7.3-10.4 8.4-2.2 0.2-1.7 0.1-3.9 0.1v-5.7c7 0.6 10.6-5.2 10.8-11v-10.9l-8.8-0.1v-5.6h30.7v5.6l-15.2 0.1v9l0.1 0.6c0.5 7.4 5.4 10.2 12.1 10.3 1.5 0.1 6.2 0 7.7 0v-20.8-0.5-0.5l0.2-0.5 0.1-0.4 0.2-0.5 0.2-0.4 0.3-0.3 0.3-0.4 0.4-0.3 0.3-0.3 0.4-0.2 0.5-0.2 0.4-0.2 0.5-0.1z"/>
					</g>
					<g id="g90">
						<path id="path92" fill-rule="evenodd" class="s2" d="m152.4 16.6c3.4 0 6.6 1 9.2 2.8 5.1 4.4-0.6 6.6-4.1 9.1 1.4-4-2.2-6-5.1-6-4.9 0-8.9 4-8.9 8.9 0 4.8 4 8.8 8.9 8.8 6.7 0.5 11.9-8.4 8.1-11.6 3.8-1.8 7.9-3.3 8.1 2.8 0 8.1-7.5 14.5-16.2 14.5-8.8 0-16.1-6.4-16.1-14.5 0-8.2 7.3-14.8 16.1-14.8z"/>
					</g>
					<g id="g94">
						<path id="path96" fill-rule="evenodd" class="s3" d="m99.8 23.9c3.2 0 6.3 1 8.7 2.7 4.9 4.4-0.5 6.5-3.8 9 1.3-3.9-2.1-5.9-4.9-5.9-4.7 0-8.5 4.3-8.5 9.1 0 4.7 3.8 8.6 8.5 8.6 6.4 0.5 11.4-8.6 7.7-11.8 3.7-1.7 7.6-2.7 7.7 3.2 0 7.9-7.1 14.2-15.4 14.2-8.4 0-15.4-6.3-15.4-14.2 0-8 7-14.9 15.4-14.9z"/>
					</g>
					<g id="g98">
						<path id="path100" fill-rule="evenodd" class="s3" d="m355.1 39.4v-10.3h-18.7v-5.6h20.6 0.5 0.5l0.5 0.1 0.4 0.2 0.5 0.2 0.4 0.2 0.4 0.3 0.3 0.3 0.3 0.4 0.3 0.3 0.2 0.4 0.2 0.5 0.2 0.4 0.1 0.5v0.5 0.5 11.1z"/>
					</g>
					<g id="g102">
						<path id="path104" fill-rule="evenodd" class="s3" d="m451.4 20.4c3.1 0 6 1 8.3 2.6 4.7 4.1-0.4 6.1-3.7 8.4 1.4-3.7-1.9-5.6-4.6-5.5-4.5 0-8.1 3.6-8.1 8.1 0 4.4 3.6 8.1 8.1 8.1 6.1 0.4 10.9-7.7 7.4-10.6 3.5-1.7 7.2-3 7.3 2.5 0 7.4-6.8 13.3-14.7 13.3-8 0-14.7-5.9-14.7-13.3 0-7.5 6.7-13.6 14.7-13.6z"/>
					</g>
					<g id="g106">
						<path id="path108" fill-rule="evenodd" class="s3" d="m500.7 20.4c3.2 0 6.1 1 8.4 2.6 4.7 4.1-0.5 6.1-3.7 8.4 1.3-3.7-2-5.6-4.7-5.5-4.4 0-8 3.6-8 8.1 0 4.4 3.6 8.1 8 8.1 6.2 0.4 11-7.7 7.4-10.6 3.5-1.7 7.3-3 7.4 2.5 0 7.4-6.8 13.3-14.8 13.3-7.9 0-14.6-5.9-14.6-13.3 0-7.5 6.7-13.6 14.6-13.6z"/>
					</g>
					<g id="g110">
						<path id="path112" fill-rule="evenodd" class="s3" d="m526.2 23.5h0.5l0.5 0.1 0.5 0.2 0.4 0.2 0.4 0.2 0.4 0.3 0.3 0.3 0.3 0.4 0.3 0.3 0.3 0.4 0.1 0.5 0.2 0.4 0.1 0.5 0.1 0.5v0.5 20.4c-0.3 2.9-1.7 5.5-7.2 5.6h-25.9c1.4 0.9 1.8 2 2 3.2v8.6h-6.8v-8.7c0.1-1.9-0.6-2.8-2-3.1h-4.6v-5.7h37.8v-19.5h-6.8v-5.6h8.6z"/>
					</g>
					<g id="g114">
						<path id="path116" fill-rule="evenodd" class="s3" d="m573.7 54.8v-31.3h6.7v42.6h-6.7v-5.7h-37v-5.6h8.9v-7.4h6.7v7.4z"/>
					</g>
					<g id="g118">
						<path id="path120" fill-rule="evenodd" class="s3" d="m536.8 19.9h6.7v4.1h12.3l-7.5 5.7c-4 0-2.6-0.1-7.3-0.1-2.6 0-4.3-1.6-4.2-3.6 0-2.9 0-3.3 0-6.1z"/>
					</g>
					<g id="g122">
						<path id="path124" fill-rule="evenodd" class="s3" d="m554.6 23.9c3.2 0 6.1 1 8.4 2.6 4.7 4.1-0.5 6.1-3.7 8.4 1.3-3.7-2-5.6-4.7-5.5-4.4 0-8 3.6-8 8.1 0 4.4 3.6 8.1 8 8.1 6.2 0.4 11-7.7 7.4-10.7 3.5-1.6 7.3-3 7.4 2.6 0 7.4-6.8 13.3-14.8 13.3-7.9 0-14.6-5.9-14.6-13.3 0-7.5 6.7-13.6 14.6-13.6z"/>
					</g>
				</g>
			</g>
		</g>
	</g>
</svg>