<?xml version="1.0" standalone="no"?>
<!DOCTYPE svg PUBLIC "-//W3C//DTD SVG 20010904//EN"
 "http://www.w3.org/TR/2001/REC-SVG-20010904/DTD/svg10.dtd">
<svg version="1.0" xmlns="http://www.w3.org/2000/svg"
 width="149.000000pt" height="181.000000pt" viewBox="0 0 149.000000 181.000000"
 preserveAspectRatio="xMidYMid meet">

<g transform="translate(0.000000,181.000000) scale(0.100000,-0.100000)"
fill="#000000" stroke="none">
<path d="M870 1798 c-95 -13 -264 -73 -350 -123 -281 -165 -467 -474 -511
-848 -14 -119 -7 -286 16 -372 56 -216 206 -368 422 -427 104 -28 351 -31 458
-5 238 59 401 226 464 472 24 98 91 405 91 423 0 22 -31 12 -73 -23 -53 -46
-131 -69 -232 -69 -99 0 -180 24 -235 71 -22 19 -46 33 -54 30 -10 -4 -46
-143 -46 -179 0 -5 88 -8 195 -8 118 0 195 -4 195 -10 0 -20 -40 -178 -60
-234 -69 -200 -228 -306 -460 -306 -240 0 -394 116 -446 336 -13 54 -15 101
-11 219 8 223 51 363 162 531 158 237 404 355 710 341 106 -5 257 -34 327 -62
13 -5 19 -1 23 17 43 186 48 167 -54 193 -160 40 -384 54 -531 33z"/>
<path d="M1054 1202 c-53 -34 -39 -162 17 -162 29 0 53 62 42 108 -9 37 -41
66 -59 54z"/>
<path d="M1280 1190 c-14 -14 -20 -34 -20 -66 0 -56 14 -84 42 -84 30 0 47 28
48 78 0 74 -34 108 -70 72z"/>
</g>
</svg>
