<svg version="1.2" xmlns="http://www.w3.org/2000/svg" viewBox="0 0 328 95" width="328" height="95">
	<title>konkuk-svg</title>
	<style>
		.s0 { fill: #ffffff } 
		.s1 { fill: #000000 } 
	</style>
	<g id="Layer 1">
		<g id="&lt;Group&gt;">
			<g id="&lt;Group&gt;">
				<path id="&lt;Path&gt;" class="s0" d="m345.7-17.5v130h-363.8v-130z"/>
				<path id="&lt;Compound Path&gt;" fill-rule="evenodd" class="s1" d="m327.6 0v95h-327.5v-95zm-324.6 2.9c0 2.9 0 86.3 0 89.1 2.9 0 318.7 0 321.6 0 0-2.8 0-86.2 0-89.1-2.9 0-318.7 0-321.6 0z"/>
			</g>
			<path id="&lt;Compound Path&gt;" class="s1" d="m56.1 20h22.8v3.3c-5.6 0.2-9.3 2.7-13.3 6.5l-10.5 10.5 17.9 25.9c1.8 2.6 3.1 3.5 4.3 3.7 1.1 0.1 3 0.3 4.6 0.3v3.3h-25.2v-3.3h4.1c2.3 0 3.5-0.2 3.5-1.4 0-1.1-1-2.6-1.9-3.9l-12.9-18.8-8.7 8.9v11.4c0 3 1.3 3.8 4.2 3.8h4v3.3h-24.5v-3.3h4.1c2.9 0 4.1-0.8 4.1-3.8v-39.3c0-3-1.2-3.8-4.1-3.8h-4.1v-3.3h24.5v3.3h-4c-2.9 0-4.2 0.8-4.2 3.8v22.6l19.6-19.7c1.2-1.3 2.4-3.1 2.4-4.4 0-1.5-1.3-2.3-5.3-2.3h-1.4z"/>
			<path id="&lt;Compound Path&gt;" class="s1" d="m118.6 20h20.6v3.3c-7.6 0.2-8.3 3.7-8.3 10.5v19.8c0 13.9-6.8 21-20.4 21-11.1 0-20.9-4.6-20.9-15.5v-32c0-3-1.3-3.8-4.2-3.8h-4.2v-3.3h24.7v3.3h-4.1c-2.9 0-4.1 0.8-4.1 3.8v27.9c0 5.9 0.5 9.4 3.7 12.2 3.1 2.8 6.3 3.7 11.2 3.7 8 0 14.6-5.7 14.6-14.6v-22.5c0-6.8-0.8-10.3-8.6-10.5z"/>
			<g id="&lt;Group&gt;">
				<g id="&lt;Group&gt;">
					<path id="&lt;Path&gt;" class="s1" d="m175.5 48.2l-0.2 2q-5.6-0.3-9.9-0.1-4.3 0.1-4.6 0.2-1 0-1.5-0.5-0.4-0.4-0.4-1.1v-4.4q0-1.6-0.4-2.1-0.4-0.5-2.3-1.1l0.4-0.9 5.1 0.6q-0.1 0.5-0.1 1.2-0.1 0.8-0.1 1.4v3.8q0 0.7 0.5 1.1 0.5 0.5 1.4 0.4 0.2 0 4.4 0 4.2-0.1 7.7-0.5z"/>
					<path id="&lt;Path&gt;" class="s1" d="m169.5 29.5q1.1 0 1.8-0.1l-0.1-8.4q0-1.2-0.6-1.9-0.7-0.6-2.2-1.2l0.8-0.9 4.9 1.2q-0.1 0.4-0.1 1.3-0.1 0.8-0.1 1.5l-0.1 17.7q0 1.1-0.3 2.5-0.2 1.3-0.4 2h-1.5l-0.3-3.4v-8.9c-0.4 0-1 0-1.3 0q-0.8 0.1-1.3 0.1-0.5 0.1-1 0.2-0.5 0.2-1.2 0.6l-4-1.8 0.4-0.8q0.5 0.1 1.8 0.2 1.2 0.2 2.3 0.2 1.4 0 2.5-0.1z"/>
					<path id="&lt;Path&gt;" class="s1" d="m149.9 39.4l-0.8-0.6q4.1-2.2 7.7-6.5 3.3-3.9 4.8-8c0.3-0.7-0.1-0.6-0.4-0.6q-1.1 0.1-2.3 0.1-1.4 0.1-2 0.2-0.6 0-1.1 0.2-0.4 0.2-1 0.7l-4.6-1.9 0.6-0.8q0.6 0 2.2 0.2 1.6 0.2 2.6 0.2 2.9 0 4.5-0.2 1.7-0.2 2.2-0.7l3.2 0.4q-1.4 5.4-6.1 10.4-4.7 5.1-9.5 6.9z"/>
				</g>
				<path id="&lt;Compound Path&gt;" class="s1" d="m201.2 21.5q-2.2 0.1-5.5 0.2-3.6 0.1-4.3 0.1-0.5 0.1-1 0.2-0.6 0.1-1.2 0.6l-4.6-1.7 0.6-0.9q0.6 0.1 2 0.3 1.5 0.1 2.5 0.1 6 0 8.7-0.1 2.7-0.1 3.3-0.9l3.1 0.5q-0.5 3-1.6 6.2-1 3.3-2.1 5.3 2.3-0.1 4.6-0.3 2.3-0.1 4.1-0.4l-0.3 2.4q-2.6-0.2-6.4-0.3-3.8 0-7.2 0v7q2.1-0.1 3.3-0.3 1.1-0.1 1.6-0.5l2.7 0.2-0.1 1.5-0.1 6.8q0 1-0.2 2.2-0.3 1.2-0.4 1.9h-1.5l-0.4-3.3v-6.7c0-0.4-0.1-0.5-0.5-0.5q-2.2 0-5.1 0-3.2 0-3.9 0.2-0.5 0-1 0.1-0.6 0.2-1.2 0.6l-4.6-1.8 0.5-0.8q0.6 0.1 2.1 0.2 1.5 0.2 2.5 0.2h3.6v-7q-2.5 0.1-4 0.2-1.6 0.1-2.2 0.2-0.5 0.1-1.1 0.2-0.6 0.2-1.3 0.6l-5.6-1.8 0.8-1.1q0.6 0.1 2.6 0.3 1.9 0.2 3.1 0.2 1.9 0 4.5 0 2.6-0.1 5.7-0.1 1 0 2 0 1 0 2.1 0 0.6-1.9 1.1-4.8 0.3-2.7 0.6-4.8c0-0.3 0-0.4-0.3-0.4z"/>
				<path id="&lt;Compound Path&gt;" class="s1" d="m216.5 26.7v10.1q0 0.9 0.5 1.2 0.5 0.2 1.2 0.2 2.2-0.2 4.8-0.8 2.7-0.6 4.9-1.4v-13.4q0-1.2-0.6-1.9-0.5-0.7-1.9-1.3l0.6-0.8 4.6 1.2q0 0.4-0.1 1.3-0.1 0.9-0.1 1.6l-0.1 9.5h5.3l-0.1-11.2q0-1.2-0.5-1.9-0.5-0.7-1.9-1.3l0.6-0.8 4.6 1.1q-0.1 0.5-0.1 1.4-0.1 0.9-0.1 1.5l-0.1 26q0 1-0.3 2.5-0.2 1.4-0.4 2h-1.3l-0.4-3.5v-14.1h-5.3v11.7q0 1-0.3 2.4-0.2 1.5-0.4 2.1h-1.3l-0.4-3.5v-9.4q-2.3 1.1-5.5 2.3-3.3 1.2-6.1 1.3-1 0.1-1.7-0.3-0.6-0.4-0.6-1.6v-10.9q0-1.4-0.5-1.9-0.6-0.5-2.1-1l0.5-0.8 4.4 0.5q1.3-0.1 3.3-0.2 1.9-0.1 4.3-0.3l-0.3 2.1q-2.6-0.1-4.3-0.1-1.4 0-2.4 0c-0.3 0.1-0.4 0.1-0.4 0.4z"/>
				<path id="&lt;Compound Path&gt;" fill-rule="evenodd" class="s1" d="m267.1 18.1q0 0.5-0.2 1.4-0.1 0.8-0.1 1.5v6.7q1.3-0.1 3-0.2 1.7-0.1 3.3-0.3l-0.3 2.4q-1.5-0.1-3.1-0.1-1.6 0-2.9-0.1v3.9q0 1-0.3 2.4-0.2 1.4-0.4 2h-1.4l-0.3-3.4-0.2-13.3q0-1.2-0.6-1.9-0.7-0.7-2.2-1.2l0.8-0.9zm-7 8q-2.1-0.2-4-0.2-1.8 0-4.3 0-1.8 0-2.7 0.2-1 0.1-1.5 0.2-0.4 0-0.9 0.2-0.5 0.1-1 0.4l-4-1.7 0.5-0.8q0.6 0.1 1.8 0.2 1.3 0.2 2.3 0.2 1.5 0 2.7-0.1 1.2 0 2.9-0.1 2.1 0 4.2-0.1 2-0.1 4.2-0.4zm-4.2-4.1q-1.1-0.1-1.9-0.1-0.7 0-2.2 0.1-0.5 0-0.9 0.1-0.5 0.1-1 0.2l-3.4-2.2 0.7-0.8q0.4 0.1 1.4 0.3 0.9 0.2 2.2 0.4 1.1 0.1 2.6 0.1 1.5 0.1 2.7 0zm0.1 6.9q2.7 0.8 2.7 4 0 2.3-2 3.8-2.1 1.6-4.8 1.6-2.8 0-4.8-1.6-2-1.5-2-3.8 0-3.2 2.6-4 2.6-0.8 2.6-0.8 0.4-0.3 0.2-0.6-0.1-0.3-0.5-0.7l0.5-0.7 2.9 0.6-0.3 1.4q0.2 0 2.9 0.8zm-1 6.7q1.1-1.1 1.1-2.7 0-1.5-1.1-2.6-1.2-1.1-3.1-1.1-1.9 0-3.1 1.1-1.2 1.1-1.2 2.6 0 1.6 1.2 2.7 1.2 1 3.1 1 1.9 0 3.1-1zm8.6 6.3q-2.3 0-5.1 0-3.2 0.1-3.8 0.1-0.6 0.1-1.1 0.2-0.6 0.2-1.2 0.7l-4.6-1.8 0.6-0.9q0.6 0.1 2 0.3 1.5 0.1 2.5 0.1 1.9 0 5.9-0.1 4 0 4.9-0.6h2.9l-0.1 7.3q0 0.9-0.2 2.3-0.3 1.4-0.5 2h-1.5l-0.3-3.4-0.1-5.8c0-0.3-0.1-0.4-0.3-0.4z"/>
				<path id="&lt;Compound Path&gt;" class="s1" d="m296.2 23.4c-1.5 0.1-3.5 0.1-6.1 0.2q-4.1 0.1-4.7 0.2-0.5 0-1.1 0.2-0.5 0.1-1.2 0.6l-4.7-1.7 0.6-1q0.6 0.1 2.1 0.2 1.5 0.2 2.6 0.2 6.9 0 9.6-0.1 2.7-0.1 3.3-0.9l3.1 0.5q-0.4 4-1.5 8.7-1.2 4.7-2.4 7.4l-1.1-0.3q0.7-2.7 1.2-6.8c0.3-2.6 0.6-4.9 0.6-7.1q0-0.3-0.3-0.3zm7.3 20.9q-2.7-0.2-6.6-0.3-3.8 0-7.3 0-3.5 0-5.5 0.2-2.1 0.1-2.8 0.2-0.5 0.1-1.1 0.3-0.7 0.1-1.3 0.5l-5.6-1.9 0.7-1q0.7 0.1 2.6 0.3 2 0.2 3.1 0.2 0.7 0 1.5 0 0.7 0 1.7-0.1v-7.4q0-1.5-0.3-2-0.3-0.5-1.8-1.1l0.6-0.8 4.1 0.6q0 0.5-0.1 1.3-0.1 0.8-0.1 1.5v7.9q1.1 0 2.2 0 1.1 0 2.3 0h0.1v-8.1q0-1.5-0.2-2.1-0.3-0.5-1.8-1l0.7-0.9 4 0.7q0 0.4-0.1 1.3 0 0.8 0 1.4v8.6q2.8 0 5.8-0.2 3.1-0.2 5.5-0.5z"/>
			</g>
			<g id="&lt;Group&gt;">
				<path id="&lt;Compound Path&gt;" class="s1" d="m159 60h5.9v0.8c-1.5 0.1-2.4 0.7-3.5 1.7l-2.7 2.8 4.7 6.7c0.4 0.7 0.8 0.9 1.1 1 0.3 0 0.8 0 1.2 0v0.9h-6.6v-0.9h1.1c0.6 0 0.9 0 0.9-0.3 0-0.3-0.3-0.7-0.5-1l-3.4-4.9-2.2 2.3v3c0 0.7 0.3 0.9 1.1 0.9h1v0.9h-6.4v-0.9h1.1c0.7 0 1.1-0.2 1.1-0.9v-10.3c0-0.7-0.4-1-1.1-1h-1.1v-0.8h6.4v0.8h-1c-0.8 0-1.1 0.3-1.1 1v5.9l5.1-5.1c0.3-0.3 0.6-0.8 0.6-1.2 0-0.3-0.3-0.6-1.4-0.6h-0.3z"/>
				<path id="&lt;Compound Path&gt;" fill-rule="evenodd" class="s1" d="m172.7 74.2c-4 0-6.6-3.5-6.6-7.3 0-2.8 2.1-7.2 6.6-7.2 4 0 6.6 3.5 6.6 7.2 0 2.9-2.1 7.3-6.6 7.3zm0-13.6c-3.5 0-4.2 3.5-4.2 6.3 0 2 0.2 6.4 4.2 6.4 3.5 0 4.2-3.6 4.2-6.4 0-1.9-0.2-6.3-4.2-6.3z"/>
				<path id="&lt;Compound Path&gt;" class="s1" d="m190 60h5.5v0.8c-1 0.1-1.6 0.3-1.9 0.8-0.2 0.5-0.4 1.2-0.4 2.2v10.4h-0.7l-8.6-11.8v8.3c0 1.6 0.2 2.3 2.2 2.3v0.9h-5.4v-0.9c1.7 0 2.2-0.7 2.2-2.2v-9.3c-0.4-0.6-0.9-0.7-1.9-0.7h-0.3v-0.8h4l7.5 10.4h0.1v-6.8c0-1.8-0.2-2.7-2.3-2.8z"/>
				<path id="&lt;Compound Path&gt;" class="s1" d="m204.7 60h6v0.8c-1.5 0.1-2.5 0.7-3.5 1.7l-2.7 2.8 4.6 6.7c0.5 0.7 0.8 0.9 1.2 1 0.2 0 0.7 0 1.1 0v0.9h-6.5v-0.9h1.1c0.6 0 0.9 0 0.9-0.3 0-0.3-0.3-0.7-0.5-1l-3.4-4.9-2.2 2.3v3c0 0.7 0.3 0.9 1 0.9h1.1v0.9h-6.4v-0.9h1.1c0.7 0 1-0.2 1-0.9v-10.3c0-0.7-0.3-1-1-1h-1.1v-0.8h6.4v0.8h-1.1c-0.7 0-1 0.3-1 1v5.9l5-5.1c0.4-0.3 0.7-0.8 0.7-1.2 0-0.3-0.4-0.6-1.4-0.6h-0.4z"/>
				<path id="&lt;Compound Path&gt;" class="s1" d="m221 60h5.4v0.8c-2 0.1-2.2 1-2.2 2.8v5.1c0 3.6-1.7 5.5-5.3 5.5-2.9 0-5.4-1.2-5.4-4v-8.4c0-0.7-0.4-1-1.1-1h-1.1v-0.8h6.4v0.8h-1.1c-0.7 0-1 0.3-1 1v7.3c0 1.5 0.1 2.4 0.9 3.2 0.8 0.7 1.7 0.9 3 0.9 2 0 3.7-1.4 3.7-3.8v-5.8c0-1.8-0.2-2.7-2.2-2.8z"/>
				<path id="&lt;Compound Path&gt;" class="s1" d="m235.5 60h5.9v0.8c-1.4 0.1-2.4 0.7-3.4 1.7l-2.8 2.8 4.7 6.7c0.5 0.7 0.8 0.9 1.1 1 0.3 0 0.8 0 1.2 0v0.9h-6.6v-0.9h1.1c0.6 0 0.9 0 0.9-0.3 0-0.3-0.2-0.7-0.5-1l-3.3-4.9-2.3 2.3v3c0 0.7 0.3 0.9 1.1 0.9h1v0.9h-6.3v-0.9h1c0.8 0 1.1-0.2 1.1-0.9v-10.3c0-0.7-0.3-1-1.1-1h-1v-0.8h6.3v0.8h-1c-0.8 0-1.1 0.3-1.1 1v5.9l5.1-5.1c0.3-0.3 0.6-0.8 0.6-1.2 0-0.3-0.3-0.6-1.4-0.6h-0.3z"/>
				<path id="&lt;Compound Path&gt;" class="s1" d="m257.1 60h5.4v0.8c-2 0.1-2.2 1-2.2 2.8v5.1c0 3.6-1.7 5.5-5.3 5.5-2.9 0-5.4-1.2-5.4-4v-8.4c0-0.7-0.4-1-1.1-1h-1.1v-0.8h6.4v0.8h-1c-0.8 0-1.1 0.3-1.1 1v7.3c0 1.5 0.1 2.4 1 3.2 0.8 0.7 1.6 0.9 2.9 0.9 2.1 0 3.8-1.4 3.8-3.8v-5.8c0-1.8-0.2-2.7-2.3-2.8z"/>
				<path id="&lt;Compound Path&gt;" class="s1" d="m272.6 60h5.5v0.8c-1 0.1-1.6 0.3-1.9 0.8-0.2 0.5-0.4 1.2-0.4 2.2v10.4h-0.7l-8.6-11.8v8.3c0 1.6 0.2 2.3 2.2 2.3v0.9h-5.4v-0.9c1.7 0 2.2-0.7 2.2-2.2v-9.3c-0.4-0.6-0.9-0.7-1.9-0.7h-0.3v-0.8h4l7.5 10.4h0.1v-6.8c0-1.8-0.2-2.7-2.3-2.8z"/>
				<path id="&lt;Compound Path&gt;" class="s1" d="m279.3 73h1c0.8 0 1.1-0.2 1.1-0.9v-10.3c0-0.7-0.3-1-1.1-1h-1v-0.8h6.4v0.8h-1.1c-0.7 0-1.1 0.3-1.1 1v10.3c0 0.7 0.4 0.9 1.1 0.9h1.1v0.9h-6.4z"/>
				<path id="&lt;Compound Path&gt;" class="s1" d="m286.3 60h6v0.8h-1c-0.7 0-1 0.2-1 0.6 0 0.2 0.1 0.6 0.3 0.9l3.4 8.8 2.9-7.7c0.3-0.9 0.4-1.2 0.4-1.6 0-0.9-1.2-1-2-1v-0.8h5.2v0.8c-1.4 0-1.7 0.5-2.2 1.8l-4.5 11.5h-0.8l-4.7-11.9c-0.5-1.3-0.6-1.4-2-1.4z"/>
				<circle id="&lt;Compound Path&gt;" class="s1" cx="300.6" cy="73" r="1.2"/>
			</g>
		</g>
	</g>
</svg>