<svg xmlns="http://www.w3.org/2000/svg" version="1.2" viewBox="0 0 569 106" width="569" height="106" style="fill:white;">
	<title>communication_brand1-ai</title>
	<style>
		tspan { white-space:pre } 
		
		.s2 { fill: none;stroke: #2c2e35;stroke-width: .4 } 
		.t3 { font-size: 1px;fill: #2c2e35;font-weight: 300;font-family: "Frutiger" } 
	</style>
	<g id="Layer 1">
		<g id="&lt;Group&gt;">
			<g id="&lt;Group&gt;">
				<path id="&lt;Path&gt;" class="" d="m292.3 8.7v88.4c0 4.6-3.7 8.3-8.3 8.3h-19.2v-43.8c-12.4 0-66.2 0-78.3 0v43.8h-19.2c-4.6 0-8.3-3.7-8.3-8.3v-88.4c0-4.6 3.7-8.3 8.3-8.3h19.2v40.7c12.1 0 65.9 0 78.3 0v-40.7h19.2c4.6 0 8.3 3.7 8.3 8.3z"/>
			</g>
			<g id="&lt;Group&gt;">
				<path id="&lt;Path&gt;" class="" d="m136.9 8.7v96.7h-16.1c-14.2 0-22.9-7.4-32.7-17l-59.8-60.8v77.8h-19.2c-4.6 0-8.2-3.7-8.2-8.3v-96.7h16.7c15.4 0 22 6.8 31.5 16.2l60.4 61.2v-77.4h19.2c4.5 0 8.2 3.7 8.2 8.3z"/>
			</g>
		</g>
		<g id="&lt;Group&gt;">
			<path id="&lt;Compound Path&gt;" fill-rule="evenodd" class="" d="m384.6 52.4c0 7.7-5.5 12.8-13.7 12.8-8.1 0-13.6-5.1-13.6-12.8 0-7.8 5.5-13.1 13.6-13.1 8.2 0 13.7 5.3 13.7 13.1zm-6.9-0.7c0-3.8-2.1-7.6-6.8-7.6-4.5 0-6.6 3.9-6.6 7.6 0 3.2 0.8 8.7 6.6 8.7 5.9 0 6.8-5.5 6.8-8.7z"/>
			<path id="&lt;Path&gt;" class="" d="m352.8 33.4q0 31 0 31.2-0.2 0-5.1 0c-2.7 0-3.8-0.6-5.1-2.9l-12.2-22.8c0 6.5 0 25.6 0 25.7q-0.2 0-4.1 0c-1.4 0-2.5-1-2.5-2.3q0-31.1 0-31.3 0.2 0 5.1 0c2.7 0 3.8 0.7 5.1 3l12.2 22.8c0-4.4 0-25.6 0-25.8q0.2 0 4.1 0c1.4 0 2.5 1.1 2.5 2.4z"/>
			<path id="&lt;Path&gt;" class="" d="m475.2 31c1.4 0 2.5 1.1 2.5 2.4v28.9c0 1.3-1.1 2.3-2.5 2.3h-4.4v-14.8h-14.5v14.8h-4.4c-1.4 0-2.5-1-2.5-2.3v-28.9c0-1.3 1.1-2.4 2.5-2.4h4.4v13.7h14.5v-13.7z"/>
			<path id="&lt;Path&gt;" class="" d="m413 49.6v12.7c0 1.3-1.1 2.3-2.4 2.3q-4 0-4.2 0 0-0.2 0-12.7c0-2.9 0-7.2-4.5-7.2h-6.1q0 19.7 0 19.9-0.2 0-4.2 0c-1.4 0-2.5-1-2.5-2.3q0-22.2 0-22.4 0.2 0 15.1 0c5.6 0 8.8 3.5 8.8 9.7z"/>
			<path id="&lt;Path&gt;" class="" d="m534.6 42.3q0 22.1 0 22.3-0.2 0-15 0c-5.6 0-8.9-3.5-8.9-9.7v-12.6c0-1.3 1.2-2.4 2.5-2.4q4 0 4.2 0 0 0.2 0 12.7c0 2.9 0 7.3 4.5 7.3h6.1q0-19.8 0-20 0.2 0 4.2 0c1.3 0 2.4 1.1 2.4 2.4z"/>
			<path id="&lt;Compound Path&gt;" fill-rule="evenodd" class="" d="m565.9 52.2c0 3.9-1.1 13-11.1 13-2.8 0-5.4-1-7.6-2.8l-0.3-0.2q0 12.4 0 12.6-0.2 0-4.1 0c-1.4 0-2.5-1.1-2.5-2.4v-30.2c0-1.3 1.1-2.3 2.5-2.3h3.8v3.2l0.3-0.3c1.6-1.6 4.3-3.5 8.1-3.5 9.8 0 10.9 9 10.9 12.9zm-6.9 0c0-3.9-1.6-8.1-5.8-8.1-4.3 0-6.2 4.2-6.2 8.1 0 3.8 1.6 8.2 6.1 8.2 4.3 0 5.9-4.3 5.9-8.2z"/>
			<path id="&lt;Compound Path&gt;" fill-rule="evenodd" class="" d="m443.2 42.2v20.1c0 8.4-4.5 12.5-13.8 12.5h-5.9c-1.4 0-2.5-1.1-2.5-2.4q0-2.2 0-2.4h7.5c7.4 0 8-3.9 8-8.6v-0.5l-0.2 0.4c-1.6 2.1-4.5 3.3-8.1 3.3-9.6 0-10.6-8.7-10.6-12.5 0-6.1 3.4-12.8 11-12.8 3.5 0 5.7 0.9 8 3.4l0.2 0.2c0-0.6 0-2.8 0-3q0.2 0 3.9 0c1.3 0 2.5 1 2.5 2.3zm-6.7 9.8c0-4.9-2.1-7.9-5.8-7.9-5.7 0-6.2 6.2-6.2 8 0 3.8 2.1 7.7 5.9 7.7 3.9 0 6.1-2.9 6.1-7.8z"/>
			<path id="&lt;Path&gt;" class="" d="m485 74.8c-1.3 0-2.5-1.1-2.5-2.4q0-2.2 0-2.4h4c3 0 4.6-1.4 4.6-4q0 0-10-26.1h7.2l6.5 18.6 5.3-14.8c1-2.9 1.8-3.8 4.6-3.8q3 0 3.3 0-0.1 0.3-10.1 25.3c-2 5.1-3.7 9.6-10.5 9.6z"/>
		</g>
		
		
		<text id="X" style="transform: matrix(2,0,0,2,-39.966,56.621)">
			<tspan x="0" y="0" class="t3">X
</tspan>
		</text>
		
		
		
	</g>
</svg>